<?xml version="1.0" encoding="UTF-8"?>
<svg id="Livello_2" data-name="Livello 2" xmlns="http://www.w3.org/2000/svg" viewBox="0 0 99.21 89.89">
  <defs>
    <style>
      .cls-1 {
        fill: #fff;
      }
    </style>
  </defs>
  <g id="Livello_3" data-name="Livello 3">
    <path class="cls-1" d="M70.26,42.27c-.22-.91-.83-3.24-3.03-4.85-2.12-1.56-4.43-1.49-5.23-1.46-2.17.1-3.71.92-5.51,2.09-1.93,1.25-3.81,2.86-5.66,4.83-.32.34-.63.69-.94,1.04-.75-.92-1.45-1.82-2.09-2.69-.73-.99-1.36-1.89-1.89-2.69.19.02.38.04.58.04.19,0,.38,0,.57-.02,1.25-.1,2.63-.5,4.12-1.2,1.49-.7,2.97-1.59,4.43-2.69,1.46-1.1,2.86-2.35,4.2-3.76,1.34-1.41,2.51-2.89,3.51-4.45,1-1.56,1.77-3.12,2.31-4.7.54-1.57.75-3.08.63-4.53-.06-.72-.34-1.52-.83-2.4-.49-.88-1.21-1.7-2.15-2.46-.94-.76-2.12-1.37-3.54-1.83-1.42-.46-3.07-.61-4.97-.45-3.57.29-6.97,1.12-10.19,2.47-3.22,1.36-6.03,2.99-8.44,4.91-2.41,1.92-4.28,3.97-5.64,6.15-1.35,2.18-1.95,4.24-1.79,6.17.09,1.06.35,1.91.78,2.55.43.63.9,1.12,1.38,1.46.57.37,1.22.65,1.96.81-.08-.22-.17-.46-.26-.73-.14-.45-.24-1.07-.3-1.87-.12-1.41.41-3.08,1.56-5.01,1.16-1.93,2.81-3.81,4.95-5.63,2.14-1.82,4.71-3.42,7.71-4.8,3-1.38,6.28-2.21,9.85-2.5.65-.05,1.3-.05,1.98,0,.67.06,1.29.19,1.87.39.57.2,1.04.5,1.42.89.38.39.59.87.63,1.44.1,1.25-.14,2.55-.74,3.88-.6,1.33-1.43,2.64-2.49,3.94-1.06,1.29-2.28,2.53-3.65,3.72-1.38,1.19-2.78,2.25-4.21,3.19-1.43.94-2.85,1.74-4.25,2.39-1.4.65-2.63,1.08-3.68,1.28.93-1.76,1.88-3.43,2.86-5,.98-1.57,1.87-2.96,2.67-4.15.8-1.19,1.45-2.19,1.94-2.97.49-.79.73-1.27.71-1.46-.02-.27-.24-.56-.65-.89-.41-.33-.88-.62-1.42-.86s-1.06-.45-1.57-.62c-.51-.17-.86-.24-1.05-.23-.3.03-.84.55-1.59,1.57-.76,1.02-1.61,2.35-2.54,4-.94,1.65-1.91,3.53-2.92,5.64-1.01,2.11-1.91,4.28-2.71,6.51-.79,2.23-1.41,4.43-1.87,6.61-.45,2.18-.6,4.16-.46,5.95.16,1.98.6,3.42,1.32,4.34.71.92,1.48,1.34,2.31,1.27.76-.06,1.19-.28,1.29-.65.1-.37.05-.65-.15-.82-.04-.04-.12-.04-.23,0-.11.03-.23.04-.34.03-.12-.01-.23-.1-.34-.26-.11-.16-.18-.47-.22-.93-.16-1.94.02-3.95.55-6.04.53-2.09,1.23-4.17,2.11-6.23.61.87,1.35,1.87,2.23,3,.88,1.13,1.81,2.28,2.81,3.44.33.39.67.77,1.02,1.16-.46.65-.92,1.31-1.37,2-1.63,2.51-3.05,5.09-4.27,7.76-1.22,2.66-2.14,5.32-2.76,7.98-.62,2.65-.84,5.1-.66,7.34.2,2.43,1.01,4.37,2.43,5.83,1.42,1.45,3.31,2.08,5.67,1.89.8-.07,1.67-.34,2.6-.82.94-.48,1.86-1.07,2.78-1.78s1.81-1.5,2.67-2.37c.87-.88,1.62-1.75,2.25-2.63.64-.87,1.14-1.72,1.51-2.54.37-.81.54-1.51.49-2.08-.06-.68-.23-1.31-.53-1.88-.3-.57-.61-1.04-.95-1.41-.34-.37-.66-.64-.96-.81-.3-.17-.51-.21-.61-.12-.1.12-.12.29-.05.49.07.2.13.53.17.99.03.34-.15.86-.53,1.56-.38.7-.89,1.48-1.53,2.34-.64.86-1.37,1.74-2.19,2.65-.82.91-1.68,1.74-2.55,2.48-.88.74-1.73,1.37-2.57,1.88-.84.51-1.6.79-2.28.85-.38.03-.68-.07-.89-.3-.21-.23-.35-.82-.43-1.77-.14-1.71,0-3.62.42-5.72.42-2.1,1.07-4.27,1.96-6.5.89-2.23,1.97-4.46,3.24-6.67.93-1.61,1.92-3.13,2.98-4.58.46.4.93.79,1.39,1.14.5.39,1,.73,1.5,1.04.84.59,2.93,1.9,5.81,1.91,4.6,0,7.49-3.34,8.34-4.44.46-.6,3.31-4.42,2.18-9.03ZM65.84,49.04s-.04.07-.06.09c-.46.71-2.06,3.18-4.9,3.28-.38.01-.73-.02-1.07-.07-.02,0-.04,0-.06-.01-.02,0-.05,0-.07-.01-.41-.1-.83-.25-1.26-.47-.88-.44-1.79-1.05-2.73-1.81-.65-.53-1.29-1.11-1.93-1.74.02-.02.04-.05.07-.07,1.42-1.55,2.66-2.65,3.31-3.21,3.13-2.67,4.69-4.01,6.38-3.86,1.25.11,2.49.85,3.12,1.88,1.44,2.38-.66,5.81-.8,6.02ZM14.36,55.22v5.92c0,.78-.3,1.19-.79,1.37-.48.18-.79-.01-.79-.79v-5.92c0-.78.3-1.19.79-1.37.48-.18.79.01.79.79ZM33.73,55.36c-1.07-1.37-1.69-3.28-1.9-5.84-.14-1.74-.04-3.64.3-5.66L0,55.56v16.08l38.09-13.86s.01-.03.02-.04h-.02c-1.15,0-2.83-.41-4.36-2.37ZM9.01,65.62c-.08-.25-.14-.4-.14-1.3v-1.72c0-1.02-.3-1.28-1-1.03l-.53.19v4.47l-1.52.55v-10.97l2.3-.84c1.58-.57,2.26,0,2.26,1.7v.86c0,1.13-.32,1.97-1,2.57v.03c.76.08,1.01.81,1.01,1.95v1.69c0,.53.01.92.17,1.27l-1.55.56ZM15.88,60.48c0,1.76-.82,3.06-2.31,3.6-1.49.54-2.31-.16-2.31-1.92v-5.71c0-1.76.82-3.06,2.31-3.6,1.49-.54,2.31.16,2.31,1.92v5.71ZM21.57,58.44c0,1.69-.79,2.89-2.31,3.44l-2.39.87v-10.97l2.3-.84c1.58-.57,2.26,0,2.26,1.7v.39c0,1.13-.3,1.94-.98,2.55v.03c.82.06,1.13.76,1.13,1.92v.89ZM25.23,56.08v3.64l-1.52.55v-3.64l-1.92-6.64,1.59-.58,1.15,4.58h.03s1.15-5.43,1.15-5.43l1.45-.53-1.92,8.04ZM18.99,55.48l-.6.22v-2.9l.73-.27c.54-.2.77.06.77.85v.61c0,.88-.35,1.29-.91,1.49ZM20.05,58v.96c0,.81-.28,1.18-.79,1.37l-.87.32v-3.37l.68-.25c.69-.25.98-.04.98.97ZM61.57,33.15s-.01.01-.02.02c.11,0,.21-.01.32-.02.17,0,.38-.02.64-.02,2.38,0,4.59.7,6.38,2.02,2.03,1.5,3.41,3.67,4.09,6.45.29,1.17.38,2.29.33,3.34l25.89-9.42v-16.08l-37.64,13.7ZM80.3,32.38l-1.43.52v-1.17c0-.78-.3-.97-.79-.79-.48.18-.79.58-.79,1.36v5.91c0,.78.3.95.79.78.48-.18.79-.57.79-1.35v-1.56l1.43-.52v1.45c0,1.75-.77,3.03-2.26,3.57-1.49.54-2.26-.18-2.26-1.93v-5.69c0-1.75.77-3.03,2.26-3.57,1.49-.54,2.26.18,2.26,1.93v1.06ZM85.24,37.83l-4.01,1.46v-10.94l1.52-.55v9.38l2.5-.91v1.56ZM90.36,33.36c0,1.75-.77,3.03-2.26,3.57-1.49.54-2.26-.18-2.26-1.93v-8.33l1.52-.55v8.44c0,.78.3.95.79.78.48-.18.79-.57.79-1.35v-8.44l1.43-.52v8.33ZM96.08,31.29c0,1.69-.79,2.88-2.3,3.43l-2.39.87v-10.94l2.29-.83c1.57-.57,2.25,0,2.25,1.7v.39c0,1.13-.3,1.94-.98,2.54v.03c.81.06,1.13.76,1.13,1.92v.89ZM8.85,57.4v1.08c0,.88-.35,1.29-.91,1.49l-.6.22v-3.37l.73-.27c.54-.2.77.06.77.85ZM94.56,30.84v.95c0,.81-.28,1.18-.79,1.36l-.87.32v-3.36l.68-.25c.69-.25.98-.04.98.97ZM93.5,28.34l-.59.22v-2.89l.73-.27c.54-.2.77.06.77.84v.61c0,.88-.35,1.28-.91,1.49ZM53.82,3.45l-1.38.66.31-1.49-1.05-1.11,1.52-.16.73-1.34.62,1.39,1.5.28-1.13,1.02.2,1.51-1.32-.76ZM41.79,3.92l-1.3-.8,1.42-.55.35-1.49.96,1.19,1.52-.12-.83,1.28.59,1.41-1.48-.39-1.16.99-.08-1.52ZM31.53,8.03l-1.46-.43,1.23-.9-.04-1.53,1.24.9,1.44-.51-.47,1.45.93,1.21h-1.53s-.86,1.26-.86,1.26l-.47-1.45ZM22.68,14.65l-1.53-.04.96-1.19-.44-1.46,1.43.54,1.26-.87-.08,1.53,1.21.93-1.47.4-.51,1.44-.83-1.28ZM15.84,23.34l-1.48.36.62-1.4-.8-1.3,1.52.16.99-1.16.32,1.49,1.41.58-1.32.77-.12,1.52-1.14-1.02ZM10.39,32.72l-1.11-1.05,1.51-.24.66-1.38.7,1.36,1.51.2-1.08,1.08.28,1.5-1.36-.69-1.34.73.24-1.51ZM8.65,43.97l-1.34-.73,1.39-.62.28-1.5,1.02,1.13,1.51-.2-.76,1.32.66,1.38-1.49-.31-1.11,1.05-.16-1.52ZM20.73,75.09l-1.46.44.54-1.43-.87-1.26,1.53.08.93-1.21.4,1.47,1.44.51-1.28.83-.04,1.53-1.19-.96ZM28.46,81.5l-1.16-.99,1.49-.32.58-1.41.77,1.32,1.52.12-1.02,1.14.36,1.48-1.4-.62-1.3.8.16-1.52ZM38.73,86.41l-1.38-.66,1.36-.7.2-1.51,1.08,1.08,1.5-.28-.69,1.36.73,1.34-1.51-.24-1.05,1.11-.24-1.51ZM49.92,88.5l-1.5-.28,1.13-1.02-.2-1.51,1.32.76,1.38-.66-.31,1.49,1.05,1.11-1.52.16-.73,1.34-.62-1.39ZM61.27,87.62l-1.52.12.83-1.28-.59-1.41,1.48.39,1.16-.99.08,1.52,1.3.8-1.42.55-.36,1.49-.96-1.19ZM72.01,83.83l-1.44.51.47-1.45-.93-1.21h1.53s.86-1.26.86-1.26l.47,1.45,1.46.43-1.23.9.04,1.53-1.24-.9ZM80.22,76.73l-1.21-.93,1.47-.4.51-1.44.83,1.28,1.53.04-.96,1.19.44,1.46-1.43-.54-1.26.87.08-1.53ZM87.49,68.41l-1.41-.58,1.32-.77.12-1.52,1.14,1.02,1.48-.36-.62,1.4.8,1.3-1.52-.16-.99,1.16-.32-1.49ZM92.36,58.49l-1.51-.2,1.08-1.08-.28-1.5,1.36.69,1.34-.73-.24,1.51,1.11,1.05-1.51.24-.66,1.38-.7-1.36ZM94.5,47.64l-1.51.2.76-1.32-.66-1.38,1.49.31,1.11-1.05.16,1.52,1.34.73-1.39.62-.28,1.5-1.02-1.13ZM82.71,16.71l-1.44-.51,1.28-.83.04-1.53,1.19.96,1.46-.44-.54,1.43.87,1.26-1.53-.08-.93,1.21-.4-1.47ZM74.36,9.79l-1.52-.12,1.02-1.14-.36-1.48,1.4.62,1.3-.8-.16,1.52,1.16.99-1.49.32-.58,1.41-.77-1.32ZM64.51,5.27l-1.5.28.69-1.36-.73-1.34,1.51.24,1.05-1.11.24,1.51,1.38.66-1.36.7-.2,1.51-1.08-1.08ZM47.38,8.59c-1.33.38-2.63.84-3.9,1.38-3.44,1.45-6.5,3.24-9.1,5.31-2.65,2.11-4.76,4.42-6.27,6.86-1.67,2.69-2.41,5.35-2.2,7.89.13,1.55.56,2.87,1.27,3.91.62.91,1.33,1.64,2.09,2.18l.06.04c.85.56,1.82.97,2.89,1.21l1.44.33c-.31.97-.58,1.95-.83,2.91l-17.2,6.26c-.03-.65-.05-1.29-.05-1.92,0-18.57,13.88-33.96,31.8-36.35ZM65.88,10.92c.82.79,1.49,1.64,2,2.54.69,1.23,1.09,2.42,1.18,3.55.15,1.83-.11,3.73-.77,5.67-.61,1.78-1.49,3.57-2.61,5.31-.19.3-.38.59-.59.88l16.43-5.98c-4.07-5.39-9.52-9.5-15.64-11.96ZM88.83,42.3l-16.04,5.84c-.71,2.41-1.93,4.17-2.48,4.88-1.28,1.66-4.87,5.53-10.55,5.53-1.65,0-3.11-.33-4.35-.78-1.24-.46-2.26-1.05-3.04-1.6-.24-.15-.47-.31-.71-.47-.4.63-.79,1.27-1.17,1.92-1.2,2.08-2.23,4.2-3.06,6.3-.82,2.07-1.43,4.09-1.82,6.02-.26,1.28-.39,2.48-.41,3.58.52-.35,1.05-.76,1.59-1.22.78-.66,1.55-1.41,2.28-2.22.76-.83,1.44-1.65,2.02-2.44.56-.75,1-1.42,1.31-2,.07-.14.13-.24.16-.32,0,0,0-.01,0-.02-.37-1.12-.16-2.31.58-3.18l.18-.22.22-.18c.54-.42,1.19-.65,1.88-.65.6,0,1.2.17,1.83.52.58.33,1.13.78,1.68,1.39.5.55.95,1.22,1.36,2,.47.9.75,1.89.84,2.95.09,1.07-.15,2.21-.73,3.48-.45.98-1.05,2-1.8,3.02-.72.99-1.57,1.98-2.53,2.95-.95.96-1.95,1.84-2.96,2.62-.76.59-1.54,1.11-2.33,1.57.48.02.97.03,1.46.03,20.22,0,36.67-16.45,36.67-36.67,0-.87-.03-1.76-.1-2.65ZM64.24,44.48c-.14-.23-.56-.5-.96-.54h0c-.56,0-2.54,1.7-4.29,3.2-.31.26-.68.6-1.11,1,.65.49,1.26.89,1.84,1.18.22.11.43.19.61.24h.01c.13.02.26.03.38.03.03,0,.05,0,.08,0,1.37-.05,2.32-1.51,2.63-1.99l.04-.07c.6-.96,1.08-2.54.77-3.05ZM35.84,64.68c.27-1.14.59-2.3.97-3.45l-14.27,5.19c3.68,5.08,8.54,9.06,14.05,11.67-.82-1.5-1.31-3.24-1.47-5.19-.21-2.53.03-5.29.72-8.22ZM41.83,45.86c-.1.35-.19.7-.28,1.05-.37,1.46-.54,2.88-.52,4.23.07.05.13.1.2.15.01.01.03.02.04.03.63-1.1,1.29-2.2,1.99-3.27.06-.09.11-.17.17-.26-.55-.65-1.08-1.3-1.6-1.94ZM36.27,28.47c-1.11,1.84-1.21,2.88-1.17,3.33.06.76.14,1.12.18,1.26,0,.02.01.05.02.07.56-1.4,1.17-2.78,1.82-4.13.72-1.51,1.44-2.92,2.13-4.21-1.24,1.22-2.24,2.45-2.98,3.68ZM59.47,17.24c-.05-.03-.12-.06-.2-.09-.34-.12-.74-.2-1.17-.24-.27-.02-.54-.04-.81-.04-.23,0-.47,0-.69.03-1.79.15-3.51.45-5.14.9.38.22.74.47,1.07.74,1.04.83,1.6,1.8,1.69,2.86.08,1.02-.33,1.9-1.13,3.19-.51.81-1.18,1.84-1.99,3.05-.22.32-.44.66-.68,1.02,1.05-.73,2.1-1.55,3.12-2.42,1.24-1.07,2.36-2.2,3.31-3.37.9-1.09,1.6-2.2,2.1-3.3.37-.83.54-1.58.51-2.31Z"/>
  </g>
</svg>